<svg xmlns="http://www.w3.org/2000/svg" viewBox="0 0 165.521 105.965" role="img" aria-label="Apple Pay">
  <rect width="165.521" height="105.965" rx="10" fill="black"/>
  <g fill="white">
    <path d="M42.7 37.9c-1.7 2-4.4 3.6-7.1 3.4-.3-2.8 1-5.7 2.6-7.5 1.7-2 4.7-3.5 7.1-3.6.3 2.9-.8 5.8-2.6 7.7zm2.5 4c-3.9-.2-7.3 2.2-9.1 2.2-1.9 0-4.7-2.1-7.8-2-4 .1-7.7 2.3-9.7 5.9-4.2 7.2-1.1 17.8 3 23.6 2 2.9 4.4 6.1 7.5 6 3-.1 4.1-1.9 7.8-1.9 3.6 0 4.6 1.9 7.8 1.9 3.2-.1 5.3-3 7.3-5.9 2.3-3.3 3.2-6.5 3.3-6.6-.1 0-6.3-2.4-6.4-9.5-.1-6 4.9-8.8 5.1-9-2.8-4.1-7.1-4.6-8.8-4.7z"/>
    <path d="M77.3 33.4h-9.7v25.2h-7.7V33.4h-9.7V27h27.1v6.4zm14.4 25.7c-2.5 0-4.5-.7-5.9-2.1v8.4h-7.4V39.1h6.8v2h.1c1.5-1.5 3.6-2.4 6.2-2.4 5.1 0 8.5 3.9 8.5 10.1 0 6.3-3.4 10.3-8.3 10.3zm-1.9-14.3c-2.5 0-4.2 1.8-4.2 4.2s1.7 4.2 4.2 4.2c2.5 0 4.2-1.8 4.2-4.2s-1.7-4.2-4.2-4.2zm23.6 14.3c-5.4 0-9-3.6-9-9v-.7h6.4v.6c0 2.1 1.1 3.2 2.7 3.2 1.6 0 2.6-1 2.6-2.5 0-1.6-1.1-2.5-4-3.5-3.5-1.2-6.9-2.9-6.9-7.5 0-4.5 3.4-7.3 8.8-7.3 5.3 0 8.6 3.2 8.6 8.5v.7h-6.1v-.6c0-1.9-1.1-2.8-2.5-2.8-1.4 0-2.3.8-2.3 2.1 0 1.4 1.2 2.2 4 3.2 3.8 1.3 7 3.2 7 7.9.1 4.8-3.3 7.7-9.3 7.7zm28.9-.5l-3.1-9.6h-.1l-3.1 9.6h-7.6L136.8 39h7.8l3.3 9.9h.1l3.1-9.9h6.8l3.1 9.9h.1l3.2-9.9h7.6l-7.4 19.6h-7.7z"/>
  </g>
</svg>
