<svg xmlns="http://www.w3.org/2000/svg" viewBox="0 0 165 105" role="img" aria-label="Google Pay">
  <rect width="165" height="105" rx="10" fill="white" stroke="#E8E8E8" stroke-width="1"/>
  <g transform="translate(18, 28)">
    <!-- G logo -->
    <path d="M28 24.5c0-1 .1-2 .2-3H14.5v5.7h7.6c-.3 1.7-1.4 3.2-2.9 4.2v3.5h4.7c2.8-2.5 4.4-6.3 4.1-10.4z" fill="#4285F4"/>
    <path d="M14.5 37.6c3.8 0 7-1.3 9.3-3.4l-4.7-3.5c-1.3.9-3 1.4-4.6 1.4-3.5 0-6.5-2.4-7.6-5.6H2.1v3.6c2.4 4.6 7.1 7.5 12.4 7.5z" fill="#34A853"/>
    <path d="M6.9 26.5c-.3-.9-.4-1.8-.4-2.8s.1-1.9.4-2.8v-3.6H2.1C1.1 19.1.5 21.5.5 24s.6 4.9 1.6 7l4.8-4.5z" fill="#FBBC05"/>
    <path d="M14.5 15.2c2 0 3.8.7 5.2 2l3.9-3.9C21.5 11.1 18.3 9.6 14.5 9.6c-5.3 0-10 2.9-12.4 7.5l4.8 3.7c1.1-3.2 4.1-5.6 7.6-5.6z" fill="#EA4335"/>
    <!-- Pay text -->
    <text x="38" y="31" font-family="Arial, sans-serif" font-size="20" font-weight="500" fill="#3C4043">Pay</text>
  </g>
</svg>
