<svg xmlns="http://www.w3.org/2000/svg" viewBox="0 0 750 471" role="img" aria-label="Visa">
  <rect width="750" height="471" rx="40" fill="#1A1F71"/>
  <path d="M278 334L311 140h52L330 334h-52zM524 144c-10-4-26-8-46-8-51 0-87 26-87 63 0 28 25 43 44 52 19 9 26 15 26 23 0 12-16 18-30 18-20 0-31-3-48-10l-7-3-7 42c12 5 34 10 57 10 54 0 89-25 89-65 0-22-13-38-43-52-18-8-29-14-29-22 0-8 9-15 29-15 17 0 29 3 38 7l5 2 7-42zM636 140h-40c-12 0-22 3-27 16l-77 178h54l11-29h66l6 29h48L636 140zm-63 122l21-55c0 1 4-11 7-18l3 17 11 56h-42zM214 140l-50 131-5-27c-10-31-40-65-74-82l46 172h55l82-194h-54z" fill="white"/>
  <path d="M130 140H46l-1 5c65 16 108 54 126 100l-18-87c-3-13-12-17-23-18z" fill="#F9A533"/>
</svg>
